<svg xmlns="http://www.w3.org/2000/svg" width="190" height="290" viewBox="0 0 190 290">
  <defs>
    <linearGradient id="ribbon" x1="0" y1="0" x2="0" y2="1">
      <stop offset="0" stop-color="#ffc957"/>
      <stop offset="0.48" stop-color="#d48a22"/>
      <stop offset="1" stop-color="#a86416"/>
    </linearGradient>
    <linearGradient id="shield" x1="0" y1="0" x2="0" y2="1">
      <stop offset="0" stop-color="#ffdc72"/>
      <stop offset="1" stop-color="#c97914"/>
    </linearGradient>
    <filter id="shadow" x="-20%" y="-20%" width="140%" height="150%">
      <feDropShadow dx="0" dy="5" stdDeviation="4" flood-color="#000000" flood-opacity="0.34"/>
    </filter>
  </defs>
  <path filter="url(#shadow)" d="M48 8 H142 C154 8 163 17 163 29 V270 L95 234 L27 270 V29 C27 17 36 8 48 8 Z" fill="url(#ribbon)" stroke="#764419" stroke-width="4" stroke-linejoin="round"/>
  <path d="M52 17 H138 C147 17 153 23 153 34 V246 L95 216 L37 246 V34 C37 23 43 17 52 17 Z" fill="none" stroke="#ffe096" stroke-opacity="0.42" stroke-width="2"/>
  <path d="M95 42 L134 55 V88 C134 114 116 132 95 142 C74 132 56 114 56 88 V55 Z" fill="url(#shield)" stroke="#fff0a4" stroke-width="4" stroke-linejoin="round"/>
  <path d="M95 53 L121 61 V88 C121 105 110 118 95 125 C80 118 69 105 69 88 V61 Z" fill="none" stroke="#8a4e16" stroke-opacity="0.42" stroke-width="2"/>
  <ellipse cx="95" cy="93" rx="12" ry="10" fill="#6a3a14"/>
  <ellipse cx="79" cy="78" rx="5" ry="8" fill="#6a3a14" transform="rotate(-22 79 78)"/>
  <ellipse cx="89" cy="72" rx="5" ry="8" fill="#6a3a14" transform="rotate(-8 89 72)"/>
  <ellipse cx="101" cy="72" rx="5" ry="8" fill="#6a3a14" transform="rotate(8 101 72)"/>
  <ellipse cx="111" cy="78" rx="5" ry="8" fill="#6a3a14" transform="rotate(22 111 78)"/>
</svg>
